<?xml version="1.0" encoding="UTF-8" standalone="no"?><!DOCTYPE svg PUBLIC "-//W3C//DTD SVG 1.1//EN" "http://www.w3.org/Graphics/SVG/1.1/DTD/svg11.dtd"><svg width="100%" height="100%" viewBox="0 0 550 200" version="1.1" xmlns="http://www.w3.org/2000/svg" xmlns:xlink="http://www.w3.org/1999/xlink" xml:space="preserve" xmlns:serif="http://www.serif.com/" style="fill-rule:evenodd;clip-rule:evenodd;stroke-linejoin:round;stroke-miterlimit:1.41421;"><g><path d="M178.971,95.962l-13.998,8.077l14.001,8.085c8.66,5.001 13.994,14.241 13.994,24.241l0,0.001c0,10 -5.334,19.24 -13.994,24.241l-0.001,0.001c-8.663,5.002 -19.336,5.002 -27.999,0l-13.995,-8.082l0,-32.321l-13.998,8.077l-13.997,-8.077l0,48.487l13.997,8.077l14.001,8.083c17.322,10 38.662,10.001 55.984,0.002c17.324,-10.001 27.997,-28.485 27.997,-48.489l0,-0.002c0,-20.002 -10.671,-38.485 -27.994,-48.487l-13.998,-8.081l0,16.167Z" style="fill:url(#_Linear1);fill-rule:nonzero;"/><path d="M94.991,15.146l-0.002,0.001c-17.324,10.001 -27.997,28.485 -27.997,48.489l0,16.159l0.854,-0.49l13.143,-7.586l13.998,8.076l0,-16.16c0,-10 5.334,-19.24 13.994,-24.241l0.001,-0.001c8.662,-5.003 19.336,-5.003 27.999,0l0.001,0.001c8.66,5.001 13.994,14.241 13.994,24.241l0,16.16l-27.995,16.167l13.998,8.077l0,16.166l27.994,-16.166l13.998,-8.077l0,-32.326c0,-20.004 -10.673,-38.488 -27.998,-48.489l-0.001,-0.001c-8.661,-4.999 -18.326,-7.499 -27.99,-7.499c-9.665,0 -19.33,2.5 -27.991,7.499Z" style="fill:url(#_Linear2);fill-rule:nonzero;"/><path d="M67.846,79.305l-0.854,0.49l-13.998,8.081c-17.323,10.002 -27.994,28.485 -27.994,48.487l0,0.002c0,20.004 10.673,38.488 27.998,48.489c17.321,9.999 38.662,9.998 55.983,-0.002l14,-8.083l-13.997,-8.077l0,-16.166l-13.995,8.082c-8.663,5.002 -19.336,5.002 -27.999,0l-0.001,-0.001c-8.66,-5.001 -13.994,-14.241 -13.994,-24.241l0,-0.001c0,-10 5.334,-19.24 13.994,-24.241l14,-8.085l27.995,16.166l0,-16.166l13.997,-8.077l-27.994,-16.167l-13.998,-8.076l-13.143,7.586Z" style="fill:url(#_Linear3);fill-rule:nonzero;"/><path d="M243.957,62.197l24.108,0l0,50.879c3.284,-3.995 6.613,-6.68 9.99,-8.058c3.373,-1.375 7.325,-2.064 11.853,-2.064c8.612,0 15.118,2.376 19.513,7.126c4.395,4.75 6.593,11.167 6.593,19.245l0,43.421l-24.107,0l0,-34.497c0,-3.463 -0.267,-6.26 -0.8,-8.39c-0.533,-2.132 -1.421,-3.774 -2.664,-4.929c-2.131,-1.865 -4.707,-2.796 -7.725,-2.796c-4.085,0 -7.215,1.221 -9.39,3.662c-2.177,2.443 -3.263,5.927 -3.263,10.456l0,36.494l-24.108,0l0,-110.549Z" style="fill:#070f34;fill-rule:nonzero;"/><path d="M355.41,172.746l-24.108,0l0,-68.327l24.108,0l0,68.327Zm-25.707,-94.566c0,-1.865 0.354,-3.617 1.066,-5.261c0.709,-1.642 1.686,-3.084 2.93,-4.329c1.243,-1.242 2.685,-2.218 4.329,-2.93c1.642,-0.709 3.396,-1.066 5.261,-1.066c1.865,0 3.617,0.357 5.261,1.066c1.643,0.712 3.085,1.688 4.329,2.93c1.243,1.245 2.218,2.687 2.93,4.329c0.71,1.644 1.066,3.396 1.066,5.261c0,1.864 -0.356,3.619 -1.066,5.261c-0.712,1.644 -1.687,3.086 -2.93,4.329c-1.244,1.244 -2.686,2.22 -4.329,2.93c-1.644,0.712 -3.396,1.065 -5.261,1.065c-1.865,0 -3.619,-0.353 -5.261,-1.065c-1.644,-0.71 -3.086,-1.686 -4.329,-2.93c-1.244,-1.243 -2.221,-2.685 -2.93,-4.329c-0.712,-1.642 -1.066,-3.397 -1.066,-5.261" style="fill:#070f34;fill-rule:nonzero;"/><path d="M389.998,104.419l16.25,35.029l16.515,-35.029l26.905,0l-35.563,68.327l-16.115,0l-35.163,-68.327l27.171,0Z" style="fill:#070f34;fill-rule:nonzero;"/><path d="M502.491,128.659c-0.799,-3.373 -2.443,-6.081 -4.928,-8.124c-2.487,-2.041 -5.507,-3.063 -9.057,-3.063c-3.729,0 -6.772,0.978 -9.124,2.93c-2.353,1.954 -3.841,4.707 -4.461,8.257l27.57,0Zm-28.236,13.986c0,10.389 4.882,15.583 14.651,15.583c5.238,0 9.189,-2.131 11.854,-6.393l23.308,0c-4.707,15.629 -16.472,23.442 -35.295,23.442c-5.774,0 -11.056,-0.866 -15.851,-2.598c-4.794,-1.731 -8.902,-4.195 -12.32,-7.392c-3.419,-3.196 -6.06,-7.013 -7.925,-11.454c-1.864,-4.439 -2.797,-9.411 -2.797,-14.918c0,-5.681 0.887,-10.809 2.664,-15.383c1.776,-4.572 4.306,-8.458 7.592,-11.654c3.284,-3.197 7.259,-5.661 11.921,-7.393c4.662,-1.732 9.923,-2.597 15.783,-2.597c5.771,0 10.965,0.865 15.583,2.597c4.617,1.732 8.524,4.241 11.721,7.526c3.197,3.286 5.638,7.304 7.326,12.053c1.685,4.752 2.53,10.103 2.53,16.05l0,2.531l-50.745,0Z" style="fill:#070f34;fill-rule:nonzero;"/></g><defs><linearGradient id="_Linear1" x1="0" y1="0" x2="1" y2="0" gradientUnits="userSpaceOnUse" gradientTransform="matrix(111.979,0,0,111.979,108.984,136.074)"><stop offset="0" style="stop-color:#7f49dd;stop-opacity:1"/><stop offset="0.5" style="stop-color:#00a3ff;stop-opacity:1"/><stop offset="1" style="stop-color:#17f9da;stop-opacity:1"/></linearGradient><linearGradient id="_Linear2" x1="0" y1="0" x2="1" y2="0" gradientUnits="userSpaceOnUse" gradientTransform="matrix(111.979,0,0,111.979,66.9921,63.9263)"><stop offset="0" style="stop-color:#7f49dd;stop-opacity:1"/><stop offset="0.5" style="stop-color:#00a3ff;stop-opacity:1"/><stop offset="1" style="stop-color:#17f9da;stop-opacity:1"/></linearGradient><linearGradient id="_Linear3" x1="0" y1="0" x2="1" y2="0" gradientUnits="userSpaceOnUse" gradientTransform="matrix(97.9814,0,0,97.9814,25.0001,132.036)"><stop offset="0" style="stop-color:#7f49dd;stop-opacity:1"/><stop offset="0.5" style="stop-color:#00a3ff;stop-opacity:1"/><stop offset="1" style="stop-color:#17f9da;stop-opacity:1"/></linearGradient></defs></svg>