<?xml version="1.0" encoding="UTF-8" standalone="no"?><!DOCTYPE svg PUBLIC "-//W3C//DTD SVG 1.1//EN" "http://www.w3.org/Graphics/SVG/1.1/DTD/svg11.dtd"><svg width="100%" height="100%" viewBox="0 0 800 210" version="1.1" xmlns="http://www.w3.org/2000/svg" xmlns:xlink="http://www.w3.org/1999/xlink" xml:space="preserve" xmlns:serif="http://www.serif.com/" style="fill-rule:evenodd;clip-rule:evenodd;stroke-linejoin:round;stroke-miterlimit:1.41421;"><rect x="0" y="0" width="800" height="210" style="fill:#070f34;"/><g><path d="M317.415,101.527l-12.038,6.946l12.041,6.954c7.447,4.3 12.034,12.247 12.034,20.847l0,0.001c0,8.599 -4.587,16.546 -12.034,20.847l-0.001,0.001c-7.45,4.302 -16.629,4.302 -24.079,0l-12.036,-6.951l0,-27.795l-12.038,6.946l-12.037,-6.946l0,41.698l12.037,6.946l12.041,6.952c14.896,8.6 33.249,8.601 48.145,0.001c14.899,-8.6 24.078,-24.497 24.078,-41.7l0,-0.001c0,-17.203 -9.177,-33.098 -24.075,-41.699l-12.038,-6.95l0,13.903Z" style="fill:url(#_Linear1);fill-rule:nonzero;"/><path d="M245.193,32.026l-0.002,0c-14.899,8.601 -24.078,24.497 -24.078,41.701l0,13.897l0.735,-0.421l11.303,-6.525l12.038,6.946l0,-13.897c0,-8.601 4.587,-16.547 12.034,-20.848l0.002,-0.001c7.449,-4.302 16.629,-4.302 24.079,0l0.001,0.001c7.447,4.301 12.034,12.247 12.034,20.848l0,13.897l-24.075,13.903l12.038,6.946l0,13.904l24.075,-13.904l12.038,-6.946l0,-27.8c0,-17.204 -9.179,-33.1 -24.078,-41.701l-0.001,0c-7.449,-4.3 -15.76,-6.449 -24.072,-6.449c-8.312,0 -16.623,2.149 -24.071,6.449Z" style="fill:url(#_Linear2);fill-rule:nonzero;"/><path d="M221.848,87.203l-0.735,0.421l-12.038,6.95c-14.898,8.601 -24.075,24.496 -24.075,41.699l0,0.001c0,17.203 9.179,33.1 24.078,41.7c14.897,8.6 33.249,8.599 48.145,-0.001l12.041,-6.952l-12.037,-6.946l0,-13.903l-12.037,6.951c-7.449,4.302 -16.629,4.302 -24.079,0l-0.001,-0.001c-7.447,-4.301 -12.035,-12.248 -12.035,-20.847l0,-0.001c0,-8.6 4.588,-16.547 12.035,-20.847l12.041,-6.954l24.076,13.904l0,-13.904l12.037,-6.946l-24.075,-13.903l-12.038,-6.946l-11.303,6.525Z" style="fill:url(#_Linear3);fill-rule:nonzero;"/><path d="M373.303,72.49l20.733,0l0,43.755c2.824,-3.435 5.687,-5.744 8.591,-6.93c2.901,-1.182 6.3,-1.775 10.194,-1.775c7.406,0 13.001,2.044 16.781,6.128c3.78,4.086 5.67,9.604 5.67,16.552l0,37.342l-20.732,0l0,-29.668c0,-2.978 -0.23,-5.383 -0.688,-7.216c-0.458,-1.832 -1.222,-3.245 -2.291,-4.238c-1.833,-1.604 -4.048,-2.405 -6.644,-2.405c-3.513,0 -6.204,1.05 -8.075,3.149c-1.872,2.102 -2.806,5.098 -2.806,8.992l0,31.386l-20.733,0l0,-95.072Z" style="fill:#fff;fill-rule:nonzero;"/><path d="M469.152,167.562l-20.732,0l0,-58.762l20.732,0l0,58.762Zm-22.107,-81.327c0,-1.604 0.304,-3.111 0.916,-4.525c0.61,-1.412 1.45,-2.652 2.52,-3.722c1.069,-1.069 2.309,-1.908 3.723,-2.521c1.412,-0.61 2.921,-0.916 4.525,-0.916c1.604,0 3.11,0.306 4.524,0.916c1.413,0.613 2.653,1.452 3.723,2.521c1.069,1.07 1.908,2.31 2.52,3.722c0.61,1.414 0.916,2.921 0.916,4.525c0,1.603 -0.306,3.112 -0.916,4.525c-0.612,1.413 -1.451,2.653 -2.52,3.722c-1.07,1.07 -2.31,1.909 -3.723,2.52c-1.414,0.612 -2.92,0.916 -4.524,0.916c-1.604,0 -3.113,-0.304 -4.525,-0.916c-1.414,-0.611 -2.654,-1.45 -3.723,-2.52c-1.07,-1.069 -1.91,-2.309 -2.52,-3.722c-0.612,-1.413 -0.916,-2.922 -0.916,-4.525" style="fill:#fff;fill-rule:nonzero;"/><path d="M498.898,108.8l13.975,30.125l14.203,-30.125l23.138,0l-30.583,58.762l-13.86,0l-30.24,-58.762l23.367,0Z" style="fill:#fff;fill-rule:nonzero;"/><path d="M595.642,129.647c-0.687,-2.901 -2.101,-5.23 -4.238,-6.987c-2.139,-1.756 -4.735,-2.634 -7.789,-2.634c-3.207,0 -5.823,0.841 -7.846,2.52c-2.024,1.68 -3.304,4.048 -3.837,7.101l23.71,0Zm-24.283,12.028c0,8.934 4.199,13.401 12.6,13.401c4.505,0 7.903,-1.832 10.194,-5.498l20.045,0c-4.048,13.441 -14.165,20.16 -30.354,20.16c-4.965,0 -9.507,-0.745 -13.631,-2.234c-4.123,-1.489 -7.656,-3.608 -10.595,-6.357c-2.941,-2.749 -5.212,-6.031 -6.816,-9.851c-1.603,-3.817 -2.405,-8.093 -2.405,-12.829c0,-4.886 0.763,-9.295 2.291,-13.229c1.527,-3.932 3.703,-7.274 6.529,-10.023c2.824,-2.749 6.243,-4.868 10.252,-6.358c4.009,-1.489 8.534,-2.233 13.573,-2.233c4.963,0 9.43,0.744 13.402,2.233c3.97,1.49 7.331,3.648 10.08,6.472c2.749,2.826 4.848,6.282 6.3,10.366c1.45,4.087 2.176,8.688 2.176,13.803l0,2.177l-43.641,0Z" style="fill:#fff;fill-rule:nonzero;"/></g><defs><linearGradient id="_Linear1" x1="0" y1="0" x2="1" y2="0" gradientUnits="userSpaceOnUse" gradientTransform="matrix(96.3017,0,0,96.3017,257.226,136.024)"><stop offset="0" style="stop-color:#7f49dd;stop-opacity:1"/><stop offset="0.5" style="stop-color:#00a3ff;stop-opacity:1"/><stop offset="1" style="stop-color:#17f9da;stop-opacity:1"/></linearGradient><linearGradient id="_Linear2" x1="0" y1="0" x2="1" y2="0" gradientUnits="userSpaceOnUse" gradientTransform="matrix(96.3017,0,0,96.3017,221.113,73.9766)"><stop offset="0" style="stop-color:#7f49dd;stop-opacity:1"/><stop offset="0.5" style="stop-color:#00a3ff;stop-opacity:1"/><stop offset="1" style="stop-color:#17f9da;stop-opacity:1"/></linearGradient><linearGradient id="_Linear3" x1="0" y1="0" x2="1" y2="0" gradientUnits="userSpaceOnUse" gradientTransform="matrix(84.264,0,0,84.264,185,132.551)"><stop offset="0" style="stop-color:#7f49dd;stop-opacity:1"/><stop offset="0.5" style="stop-color:#00a3ff;stop-opacity:1"/><stop offset="1" style="stop-color:#17f9da;stop-opacity:1"/></linearGradient></defs></svg>