<?xml version="1.0" encoding="UTF-8" standalone="no"?><!DOCTYPE svg PUBLIC "-//W3C//DTD SVG 1.1//EN" "http://www.w3.org/Graphics/SVG/1.1/DTD/svg11.dtd"><svg width="100%" height="100%" viewBox="0 0 800 210" version="1.1" xmlns="http://www.w3.org/2000/svg" xmlns:xlink="http://www.w3.org/1999/xlink" xml:space="preserve" xmlns:serif="http://www.serif.com/" style="fill-rule:evenodd;clip-rule:evenodd;stroke-linejoin:round;stroke-miterlimit:1.41421;"><rect x="0" y="0" width="800" height="210" style="fill:#070f34;"/><g><path d="M317.359,101.567l-12.046,6.867l12.049,6.873c7.452,4.252 12.043,12.108 12.043,20.61l0,0c0,8.502 -4.591,16.357 -12.043,20.609l-0.001,0.001c-7.455,4.253 -16.64,4.253 -24.095,0l-12.044,-6.871l0,-27.478l-12.046,6.867l-12.046,-6.867l0,41.222l12.046,6.867l12.049,6.872c14.906,8.501 33.271,8.502 48.178,0.001c14.909,-8.502 24.094,-24.217 24.094,-41.223l0,-0.002c0,-17.005 -9.184,-32.719 -24.092,-41.222l-12.046,-6.871l0,13.745Z" style="fill:url(#_Linear1);fill-rule:nonzero;"/><path d="M245.088,32.86l-0.002,0c-14.909,8.503 -24.094,24.217 -24.094,41.224l0,13.738l0.735,-0.416l11.311,-6.45l12.046,6.866l0,-13.738c0,-8.502 4.591,-16.358 12.043,-20.609l0.001,-0.001c7.455,-4.253 16.64,-4.253 24.095,0l0.002,0.001c7.452,4.251 12.042,12.107 12.042,20.609l0,13.738l-24.091,13.745l12.046,6.867l0,13.744l24.091,-13.744l12.046,-6.867l0,-27.483c0,-17.007 -9.185,-32.721 -24.094,-41.224l-0.001,0c-7.454,-4.251 -15.771,-6.375 -24.088,-6.375c-8.318,0 -16.635,2.124 -24.088,6.375Z" style="fill:url(#_Linear2);fill-rule:nonzero;"/><path d="M221.727,87.406l-0.735,0.416l-12.046,6.871c-14.908,8.503 -24.091,24.217 -24.091,41.222l0,0.002c0,17.006 9.185,32.721 24.094,41.223c14.907,8.501 33.272,8.5 48.178,-0.001l12.049,-6.872l-12.046,-6.867l0,-13.744l-12.044,6.871c-7.455,4.253 -16.641,4.253 -24.095,0l-0.002,-0.001c-7.452,-4.252 -12.042,-12.107 -12.042,-20.609l0,0c0,-8.502 4.59,-16.358 12.042,-20.61l12.049,-6.873l24.092,13.744l0,-13.744l12.046,-6.867l-24.092,-13.745l-12.046,-6.866l-11.311,6.45Z" style="fill:url(#_Linear3);fill-rule:nonzero;"/><path d="M373.285,72.861l20.747,0l0,43.256c2.826,-3.397 5.691,-5.679 8.597,-6.851c2.902,-1.169 6.304,-1.755 10.201,-1.755c7.411,0 13.01,2.021 16.792,6.058c3.783,4.039 5.674,9.494 5.674,16.362l0,36.916l-20.746,0l0,-29.329c0,-2.944 -0.23,-5.322 -0.688,-7.133c-0.459,-1.812 -1.224,-3.208 -2.293,-4.19c-1.834,-1.585 -4.051,-2.378 -6.648,-2.378c-3.516,0 -6.209,1.038 -8.081,3.114c-1.874,2.077 -2.808,5.039 -2.808,8.889l0,31.027l-20.747,0l0,-93.986Z" style="fill:#fff;fill-rule:nonzero;"/><path d="M469.199,166.847l-20.747,0l0,-58.09l20.747,0l0,58.09Zm-22.122,-80.398c0,-1.585 0.304,-3.075 0.917,-4.473c0.61,-1.396 1.45,-2.622 2.521,-3.68c1.07,-1.056 2.311,-1.886 3.726,-2.491c1.412,-0.603 2.922,-0.906 4.527,-0.906c1.605,0 3.113,0.303 4.528,0.906c1.413,0.605 2.654,1.435 3.725,2.491c1.07,1.058 1.909,2.284 2.522,3.68c0.611,1.398 0.917,2.888 0.917,4.473c0,1.585 -0.306,3.077 -0.917,4.473c-0.613,1.398 -1.452,2.624 -2.522,3.681c-1.071,1.057 -2.312,1.887 -3.725,2.49c-1.415,0.606 -2.923,0.906 -4.528,0.906c-1.605,0 -3.115,-0.3 -4.527,-0.906c-1.415,-0.603 -2.656,-1.433 -3.726,-2.49c-1.071,-1.057 -1.911,-2.283 -2.521,-3.681c-0.613,-1.396 -0.917,-2.888 -0.917,-4.473" style="fill:#fff;fill-rule:nonzero;"/><path d="M498.965,108.757l13.984,29.781l14.213,-29.781l23.154,0l-30.605,58.09l-13.868,0l-30.261,-58.09l23.383,0Z" style="fill:#fff;fill-rule:nonzero;"/><path d="M595.774,129.365c-0.687,-2.867 -2.102,-5.17 -4.24,-6.907c-2.141,-1.735 -4.739,-2.604 -7.795,-2.604c-3.209,0 -5.827,0.831 -7.852,2.491c-2.025,1.661 -3.306,4.002 -3.839,7.02l23.726,0Zm-24.299,11.89c0,8.833 4.201,13.249 12.608,13.249c4.508,0 7.909,-1.812 10.201,-5.435l20.059,0c-4.051,13.287 -14.175,19.929 -30.375,19.929c-4.968,0 -9.513,-0.736 -13.64,-2.208c-4.126,-1.472 -7.661,-3.567 -10.602,-6.285c-2.943,-2.717 -5.216,-5.962 -6.821,-9.738c-1.604,-3.774 -2.407,-8 -2.407,-12.682c0,-4.831 0.764,-9.19 2.293,-13.079c1.528,-3.887 3.706,-7.19 6.533,-9.908c2.826,-2.718 6.247,-4.812 10.259,-6.285c4.012,-1.472 8.54,-2.208 13.583,-2.208c4.966,0 9.436,0.736 13.411,2.208c3.972,1.473 7.335,3.606 10.086,6.398c2.751,2.794 4.852,6.21 6.305,10.248c1.45,4.039 2.177,8.588 2.177,13.645l0,2.151l-43.67,0Z" style="fill:#fff;fill-rule:nonzero;"/></g><defs><linearGradient id="_Linear1" x1="0" y1="0" x2="1" y2="0" gradientUnits="userSpaceOnUse" gradientTransform="matrix(96.3667,0,0,95.2009,257.13,135.669)"><stop offset="0" style="stop-color:#7f49dd;stop-opacity:1"/><stop offset="0.5" style="stop-color:#00a3ff;stop-opacity:1"/><stop offset="1" style="stop-color:#17f9da;stop-opacity:1"/></linearGradient><linearGradient id="_Linear2" x1="0" y1="0" x2="1" y2="0" gradientUnits="userSpaceOnUse" gradientTransform="matrix(96.3667,0,0,95.2009,220.992,74.3312)"><stop offset="0" style="stop-color:#7f49dd;stop-opacity:1"/><stop offset="0.5" style="stop-color:#00a3ff;stop-opacity:1"/><stop offset="1" style="stop-color:#17f9da;stop-opacity:1"/></linearGradient><linearGradient id="_Linear3" x1="0" y1="0" x2="1" y2="0" gradientUnits="userSpaceOnUse" gradientTransform="matrix(84.3208,0,0,83.3008,184.855,132.236)"><stop offset="0" style="stop-color:#7f49dd;stop-opacity:1"/><stop offset="0.5" style="stop-color:#00a3ff;stop-opacity:1"/><stop offset="1" style="stop-color:#17f9da;stop-opacity:1"/></linearGradient></defs></svg>